<mxfile host="app.diagrams.net" modified="2024-04-28T09:36:46.071Z" agent="Mozilla/5.0 (Windows NT 10.0; Win64; x64; rv:125.0) Gecko/20100101 Firefox/125.0" etag="ZlcQ2TSopGHqnHmAxxtA" version="24.3.1" type="device">
  <diagram id="C5RBs43oDa-KdzZeNtuy" name="Page-1">
    <mxGraphModel dx="1395" dy="652" grid="1" gridSize="10" guides="1" tooltips="1" connect="1" arrows="1" fold="1" page="1" pageScale="1" pageWidth="827" pageHeight="1169" math="0" shadow="0">
      <root>
        <mxCell id="WIyWlLk6GJQsqaUBKTNV-0" />
        <mxCell id="WIyWlLk6GJQsqaUBKTNV-1" parent="WIyWlLk6GJQsqaUBKTNV-0" />
        <mxCell id="zkfFHV4jXpPFQw0GAbJ--13" value="&lt;&lt;Interface&gt;&gt;&#xa;ClientInterface&#xa;" style="swimlane;fontStyle=0;align=center;verticalAlign=top;childLayout=stackLayout;horizontal=1;startSize=40;horizontalStack=0;resizeParent=1;resizeLast=0;collapsible=1;marginBottom=0;rounded=0;shadow=0;strokeWidth=1;" parent="WIyWlLk6GJQsqaUBKTNV-1" vertex="1">
          <mxGeometry x="300" y="150" width="160" height="78" as="geometry">
            <mxRectangle x="340" y="380" width="170" height="26" as="alternateBounds" />
          </mxGeometry>
        </mxCell>
        <mxCell id="zkfFHV4jXpPFQw0GAbJ--15" value="" style="line;html=1;strokeWidth=1;align=left;verticalAlign=middle;spacingTop=-1;spacingLeft=3;spacingRight=3;rotatable=0;labelPosition=right;points=[];portConstraint=eastwest;" parent="zkfFHV4jXpPFQw0GAbJ--13" vertex="1">
          <mxGeometry y="40" width="160" height="8" as="geometry" />
        </mxCell>
        <mxCell id="Okl3H40MKjiR1DLWSPIe-0" value="&lt;div align=&quot;left&quot;&gt;+method(data)&lt;/div&gt;" style="text;html=1;align=left;verticalAlign=middle;resizable=0;points=[];autosize=1;strokeColor=none;fillColor=none;" vertex="1" parent="zkfFHV4jXpPFQw0GAbJ--13">
          <mxGeometry y="48" width="160" height="30" as="geometry" />
        </mxCell>
        <mxCell id="Okl3H40MKjiR1DLWSPIe-1" value="Client" style="rounded=0;whiteSpace=wrap;html=1;" vertex="1" parent="WIyWlLk6GJQsqaUBKTNV-1">
          <mxGeometry x="110" y="174" width="120" height="30" as="geometry" />
        </mxCell>
        <mxCell id="Okl3H40MKjiR1DLWSPIe-2" value="" style="endArrow=open;endSize=12;dashed=1;html=1;rounded=0;exitX=1;exitY=0.5;exitDx=0;exitDy=0;entryX=0;entryY=0.5;entryDx=0;entryDy=0;" edge="1" parent="WIyWlLk6GJQsqaUBKTNV-1" source="Okl3H40MKjiR1DLWSPIe-1" target="zkfFHV4jXpPFQw0GAbJ--13">
          <mxGeometry width="160" relative="1" as="geometry">
            <mxPoint x="270" y="190" as="sourcePoint" />
            <mxPoint x="300" y="190" as="targetPoint" />
          </mxGeometry>
        </mxCell>
        <mxCell id="Okl3H40MKjiR1DLWSPIe-3" value="Adapter" style="swimlane;fontStyle=0;align=center;verticalAlign=top;childLayout=stackLayout;horizontal=1;startSize=20;horizontalStack=0;resizeParent=1;resizeLast=0;collapsible=1;marginBottom=0;rounded=0;shadow=0;strokeWidth=1;" vertex="1" parent="WIyWlLk6GJQsqaUBKTNV-1">
          <mxGeometry x="300" y="260" width="160" height="90" as="geometry">
            <mxRectangle x="340" y="380" width="170" height="26" as="alternateBounds" />
          </mxGeometry>
        </mxCell>
        <mxCell id="Okl3H40MKjiR1DLWSPIe-6" value="&lt;div align=&quot;left&quot;&gt;-adaptee: Service&lt;br&gt;&lt;/div&gt;" style="text;html=1;align=left;verticalAlign=middle;resizable=0;points=[];autosize=1;strokeColor=none;fillColor=none;" vertex="1" parent="Okl3H40MKjiR1DLWSPIe-3">
          <mxGeometry y="20" width="160" height="30" as="geometry" />
        </mxCell>
        <mxCell id="Okl3H40MKjiR1DLWSPIe-4" value="" style="line;html=1;strokeWidth=1;align=left;verticalAlign=middle;spacingTop=-1;spacingLeft=3;spacingRight=3;rotatable=0;labelPosition=right;points=[];portConstraint=eastwest;" vertex="1" parent="Okl3H40MKjiR1DLWSPIe-3">
          <mxGeometry y="50" width="160" height="10" as="geometry" />
        </mxCell>
        <mxCell id="Okl3H40MKjiR1DLWSPIe-5" value="&lt;div align=&quot;left&quot;&gt;+method(data)&lt;/div&gt;" style="text;html=1;align=left;verticalAlign=middle;resizable=0;points=[];autosize=1;strokeColor=none;fillColor=none;" vertex="1" parent="Okl3H40MKjiR1DLWSPIe-3">
          <mxGeometry y="60" width="160" height="30" as="geometry" />
        </mxCell>
        <mxCell id="Okl3H40MKjiR1DLWSPIe-7" value="Service" style="swimlane;fontStyle=0;align=center;verticalAlign=top;childLayout=stackLayout;horizontal=1;startSize=20;horizontalStack=0;resizeParent=1;resizeLast=0;collapsible=1;marginBottom=0;rounded=0;shadow=0;strokeWidth=1;" vertex="1" parent="WIyWlLk6GJQsqaUBKTNV-1">
          <mxGeometry x="520" y="260" width="180" height="90" as="geometry">
            <mxRectangle x="340" y="380" width="170" height="26" as="alternateBounds" />
          </mxGeometry>
        </mxCell>
        <mxCell id="Okl3H40MKjiR1DLWSPIe-8" value="&lt;div align=&quot;left&quot;&gt;&lt;br&gt;&lt;/div&gt;" style="text;html=1;align=left;verticalAlign=middle;resizable=0;points=[];autosize=1;strokeColor=none;fillColor=none;" vertex="1" parent="Okl3H40MKjiR1DLWSPIe-7">
          <mxGeometry y="20" width="180" height="30" as="geometry" />
        </mxCell>
        <mxCell id="Okl3H40MKjiR1DLWSPIe-9" value="" style="line;html=1;strokeWidth=1;align=left;verticalAlign=middle;spacingTop=-1;spacingLeft=3;spacingRight=3;rotatable=0;labelPosition=right;points=[];portConstraint=eastwest;" vertex="1" parent="Okl3H40MKjiR1DLWSPIe-7">
          <mxGeometry y="50" width="180" height="10" as="geometry" />
        </mxCell>
        <mxCell id="Okl3H40MKjiR1DLWSPIe-12" value="" style="endArrow=open;endSize=12;dashed=1;html=1;rounded=0;entryX=-0.007;entryY=0.473;entryDx=0;entryDy=0;entryPerimeter=0;" edge="1" parent="Okl3H40MKjiR1DLWSPIe-7" target="Okl3H40MKjiR1DLWSPIe-10">
          <mxGeometry width="160" relative="1" as="geometry">
            <mxPoint x="-60" y="74.75999999999999" as="sourcePoint" />
            <mxPoint x="100" y="74.75999999999999" as="targetPoint" />
          </mxGeometry>
        </mxCell>
        <mxCell id="Okl3H40MKjiR1DLWSPIe-10" value="&lt;div align=&quot;left&quot;&gt;+serviceMethod(specialData)&lt;/div&gt;" style="text;html=1;align=left;verticalAlign=middle;resizable=0;points=[];autosize=1;strokeColor=none;fillColor=none;" vertex="1" parent="Okl3H40MKjiR1DLWSPIe-7">
          <mxGeometry y="60" width="180" height="30" as="geometry" />
        </mxCell>
        <mxCell id="Okl3H40MKjiR1DLWSPIe-11" value="" style="endArrow=block;dashed=1;endFill=0;endSize=12;html=1;rounded=0;exitX=0.5;exitY=0;exitDx=0;exitDy=0;entryX=0.5;entryY=0.974;entryDx=0;entryDy=0;entryPerimeter=0;" edge="1" parent="WIyWlLk6GJQsqaUBKTNV-1" source="Okl3H40MKjiR1DLWSPIe-3" target="Okl3H40MKjiR1DLWSPIe-0">
          <mxGeometry width="160" relative="1" as="geometry">
            <mxPoint x="410" y="210" as="sourcePoint" />
            <mxPoint x="570" y="210" as="targetPoint" />
          </mxGeometry>
        </mxCell>
      </root>
    </mxGraphModel>
  </diagram>
</mxfile>
